<svg width="32" height="32" viewBox="0 0 32 32" fill="none" xmlns="http://www.w3.org/2000/svg">
  <!-- Background circle -->
  <circle cx="16" cy="16" r="15" fill="#E8D5B7" stroke="#8B4513" stroke-width="2"/>
  
  <!-- Tiger head -->
  <circle cx="16" cy="14" r="8" fill="#FFA500" stroke="#8B4513" stroke-width="1.5"/>
  
  <!-- Tiger ears -->
  <circle cx="12" cy="8" r="3" fill="#FFA500" stroke="#8B4513" stroke-width="1"/>
  <circle cx="20" cy="8" r="3" fill="#FFA500" stroke="#8B4513" stroke-width="1"/>
  <circle cx="12" cy="8" r="1.5" fill="#FFFF99"/>
  <circle cx="20" cy="8" r="1.5" fill="#FFFF99"/>
  
  <!-- Tiger stripes -->
  <path d="M10 12 Q12 10 14 12" stroke="#8B4513" stroke-width="1.5" fill="none"/>
  <path d="M18 12 Q20 10 22 12" stroke="#8B4513" stroke-width="1.5" fill="none"/>
  <path d="M9 16 Q12 14 15 16" stroke="#8B4513" stroke-width="1.5" fill="none"/>
  <path d="M17 16 Q20 14 23 16" stroke="#8B4513" stroke-width="1.5" fill="none"/>
  
  <!-- Eyes -->
  <circle cx="13" cy="12" r="1" fill="#8B4513"/>
  <circle cx="19" cy="12" r="1" fill="#8B4513"/>
  
  <!-- Nose -->
  <path d="M16 15 L15 16 L17 16 Z" fill="#8B4513"/>
  
  <!-- Mouth -->
  <path d="M16 16 Q14 18 12 17" stroke="#8B4513" stroke-width="1" fill="none"/>
  <path d="M16 16 Q18 18 20 17" stroke="#8B4513" stroke-width="1" fill="none"/>
  
  <!-- Small decorative elements -->
  <circle cx="8" cy="20" r="1" fill="#90EE90"/>
  <circle cx="24" cy="20" r="1" fill="#90EE90"/>
</svg>
